<?xml version="1.0" encoding="UTF-8" standalone="no"?>
<!DOCTYPE svg PUBLIC "-//W3C//DTD SVG 1.1//EN"
 "http://www.w3.org/Graphics/SVG/1.1/DTD/svg11.dtd">
<!-- Generated by graphviz version 2.47.1 (20210417.1919)
 -->
<!-- Pages: 1 -->
<svg width="2344pt" height="620pt"
 viewBox="0.00 0.00 2344.00 620.00" xmlns="http://www.w3.org/2000/svg" xmlns:xlink="http://www.w3.org/1999/xlink">
<g id="graph0" class="graph" transform="scale(1 1) rotate(0) translate(4 616)">
<polygon fill="white" stroke="transparent" points="-4,4 -4,-616 2340,-616 2340,4 -4,4"/>
<!-- [root] aws_ebs_volume.ebs&#45;volume&#45;1 (expand) -->
<g id="node1" class="node">
<title>[root] aws_ebs_volume.ebs&#45;volume&#45;1 (expand)</title>
<polygon fill="none" stroke="black" points="2038,-180 1845,-180 1845,-144 2038,-144 2038,-180"/>
<text text-anchor="middle" x="1941.5" y="-158.3" font-family="Times New Roman,serif" font-size="14.00">aws_ebs_volume.ebs&#45;volume&#45;1</text>
</g>
<!-- [root] provider[&quot;registry.terraform.io/hashicorp/aws&quot;] -->
<g id="node25" class="node">
<title>[root] provider[&quot;registry.terraform.io/hashicorp/aws&quot;]</title>
<polygon fill="none" stroke="black" points="1526.5,-108 1269.27,-90 1526.5,-72 1783.73,-90 1526.5,-108"/>
<text text-anchor="middle" x="1526.5" y="-86.3" font-family="Times New Roman,serif" font-size="14.00">provider[&quot;registry.terraform.io/hashicorp/aws&quot;]</text>
</g>
<!-- [root] aws_ebs_volume.ebs&#45;volume&#45;1 (expand)&#45;&gt;[root] provider[&quot;registry.terraform.io/hashicorp/aws&quot;] -->
<g id="edge1" class="edge">
<title>[root] aws_ebs_volume.ebs&#45;volume&#45;1 (expand)&#45;&gt;[root] provider[&quot;registry.terraform.io/hashicorp/aws&quot;]</title>
<path fill="none" stroke="black" d="M1844.99,-144.72C1773.12,-132.6 1676.09,-116.23 1608.08,-104.76"/>
<polygon fill="black" stroke="black" points="1608.28,-101.25 1597.84,-103.03 1607.12,-108.15 1608.28,-101.25"/>
</g>
<!-- [root] aws_eip.nat (expand) -->
<g id="node2" class="node">
<title>[root] aws_eip.nat (expand)</title>
<polygon fill="none" stroke="black" points="1465,-180 1382,-180 1382,-144 1465,-144 1465,-180"/>
<text text-anchor="middle" x="1423.5" y="-158.3" font-family="Times New Roman,serif" font-size="14.00">aws_eip.nat</text>
</g>
<!-- [root] aws_eip.nat (expand)&#45;&gt;[root] provider[&quot;registry.terraform.io/hashicorp/aws&quot;] -->
<g id="edge2" class="edge">
<title>[root] aws_eip.nat (expand)&#45;&gt;[root] provider[&quot;registry.terraform.io/hashicorp/aws&quot;]</title>
<path fill="none" stroke="black" d="M1448.7,-143.88C1462.74,-134.33 1480.34,-122.37 1495.25,-112.24"/>
<polygon fill="black" stroke="black" points="1497.37,-115.03 1503.67,-106.51 1493.43,-109.24 1497.37,-115.03"/>
</g>
<!-- [root] aws_instance.example (expand) -->
<g id="node3" class="node">
<title>[root] aws_instance.example (expand)</title>
<polygon fill="none" stroke="black" points="1793.5,-324 1653.5,-324 1653.5,-288 1793.5,-288 1793.5,-324"/>
<text text-anchor="middle" x="1723.5" y="-302.3" font-family="Times New Roman,serif" font-size="14.00">aws_instance.example</text>
</g>
<!-- [root] aws_key_pair.mykeypair (expand) -->
<g id="node5" class="node">
<title>[root] aws_key_pair.mykeypair (expand)</title>
<polygon fill="none" stroke="black" points="1913,-252 1758,-252 1758,-216 1913,-216 1913,-252"/>
<text text-anchor="middle" x="1835.5" y="-230.3" font-family="Times New Roman,serif" font-size="14.00">aws_key_pair.mykeypair</text>
</g>
<!-- [root] aws_instance.example (expand)&#45;&gt;[root] aws_key_pair.mykeypair (expand) -->
<g id="edge3" class="edge">
<title>[root] aws_instance.example (expand)&#45;&gt;[root] aws_key_pair.mykeypair (expand)</title>
<path fill="none" stroke="black" d="M1750.9,-287.88C1765.41,-278.81 1783.42,-267.55 1799.09,-257.76"/>
<polygon fill="black" stroke="black" points="1801.37,-260.46 1808,-252.19 1797.66,-254.52 1801.37,-260.46"/>
</g>
<!-- [root] aws_security_group.allow&#45;ssh (expand) -->
<g id="node15" class="node">
<title>[root] aws_security_group.allow&#45;ssh (expand)</title>
<polygon fill="none" stroke="black" points="1649.5,-252 1463.5,-252 1463.5,-216 1649.5,-216 1649.5,-252"/>
<text text-anchor="middle" x="1556.5" y="-230.3" font-family="Times New Roman,serif" font-size="14.00">aws_security_group.allow&#45;ssh</text>
</g>
<!-- [root] aws_instance.example (expand)&#45;&gt;[root] aws_security_group.allow&#45;ssh (expand) -->
<g id="edge4" class="edge">
<title>[root] aws_instance.example (expand)&#45;&gt;[root] aws_security_group.allow&#45;ssh (expand)</title>
<path fill="none" stroke="black" d="M1682.65,-287.88C1659.72,-278.26 1630.92,-266.19 1606.63,-256.01"/>
<polygon fill="black" stroke="black" points="1607.8,-252.71 1597.22,-252.07 1605.09,-259.16 1607.8,-252.71"/>
</g>
<!-- [root] aws_subnet.main&#45;public&#45;1 (expand) -->
<g id="node19" class="node">
<title>[root] aws_subnet.main&#45;public&#45;1 (expand)</title>
<polygon fill="none" stroke="black" points="1369,-252 1206,-252 1206,-216 1369,-216 1369,-252"/>
<text text-anchor="middle" x="1287.5" y="-230.3" font-family="Times New Roman,serif" font-size="14.00">aws_subnet.main&#45;public&#45;1</text>
</g>
<!-- [root] aws_instance.example (expand)&#45;&gt;[root] aws_subnet.main&#45;public&#45;1 (expand) -->
<g id="edge5" class="edge">
<title>[root] aws_instance.example (expand)&#45;&gt;[root] aws_subnet.main&#45;public&#45;1 (expand)</title>
<path fill="none" stroke="black" d="M1653.27,-292.39C1644.6,-290.88 1635.85,-289.39 1627.5,-288 1543.53,-274.02 1447.7,-259.18 1379.23,-248.77"/>
<polygon fill="black" stroke="black" points="1379.74,-245.31 1369.33,-247.27 1378.69,-252.23 1379.74,-245.31"/>
</g>
<!-- [root] var.AMIS -->
<g id="node26" class="node">
<title>[root] var.AMIS</title>
<polygon fill="none" stroke="black" points="1733.5,-252 1667.5,-252 1667.5,-216 1739.5,-216 1739.5,-246 1733.5,-252"/>
<polyline fill="none" stroke="black" points="1733.5,-252 1733.5,-246 "/>
<polyline fill="none" stroke="black" points="1739.5,-246 1733.5,-246 "/>
<text text-anchor="middle" x="1703.5" y="-230.3" font-family="Times New Roman,serif" font-size="14.00">var.AMIS</text>
</g>
<!-- [root] aws_instance.example (expand)&#45;&gt;[root] var.AMIS -->
<g id="edge6" class="edge">
<title>[root] aws_instance.example (expand)&#45;&gt;[root] var.AMIS</title>
<path fill="none" stroke="black" d="M1718.56,-287.7C1716.33,-279.9 1713.65,-270.51 1711.17,-261.83"/>
<polygon fill="black" stroke="black" points="1714.5,-260.76 1708.39,-252.1 1707.77,-262.68 1714.5,-260.76"/>
</g>
<!-- [root] aws_internet_gateway.main&#45;gw (expand) -->
<g id="node4" class="node">
<title>[root] aws_internet_gateway.main&#45;gw (expand)</title>
<polygon fill="none" stroke="black" points="1187.5,-252 997.5,-252 997.5,-216 1187.5,-216 1187.5,-252"/>
<text text-anchor="middle" x="1092.5" y="-230.3" font-family="Times New Roman,serif" font-size="14.00">aws_internet_gateway.main&#45;gw</text>
</g>
<!-- [root] aws_vpc.main (expand) -->
<g id="node23" class="node">
<title>[root] aws_vpc.main (expand)</title>
<polygon fill="none" stroke="black" points="1141,-180 1044,-180 1044,-144 1141,-144 1141,-180"/>
<text text-anchor="middle" x="1092.5" y="-158.3" font-family="Times New Roman,serif" font-size="14.00">aws_vpc.main</text>
</g>
<!-- [root] aws_internet_gateway.main&#45;gw (expand)&#45;&gt;[root] aws_vpc.main (expand) -->
<g id="edge7" class="edge">
<title>[root] aws_internet_gateway.main&#45;gw (expand)&#45;&gt;[root] aws_vpc.main (expand)</title>
<path fill="none" stroke="black" d="M1092.5,-215.7C1092.5,-207.98 1092.5,-198.71 1092.5,-190.11"/>
<polygon fill="black" stroke="black" points="1096,-190.1 1092.5,-180.1 1089,-190.1 1096,-190.1"/>
</g>
<!-- [root] aws_key_pair.mykeypair (expand)&#45;&gt;[root] provider[&quot;registry.terraform.io/hashicorp/aws&quot;] -->
<g id="edge8" class="edge">
<title>[root] aws_key_pair.mykeypair (expand)&#45;&gt;[root] provider[&quot;registry.terraform.io/hashicorp/aws&quot;]</title>
<path fill="none" stroke="black" d="M1757.95,-217.8C1707.44,-207.1 1646.76,-192.52 1623.5,-180 1592.76,-163.46 1564.18,-134.98 1546.11,-114.69"/>
<polygon fill="black" stroke="black" points="1548.7,-112.33 1539.5,-107.09 1543.43,-116.93 1548.7,-112.33"/>
</g>
<!-- [root] var.PATH_TO_PUBLIC_KEY -->
<g id="node29" class="node">
<title>[root] var.PATH_TO_PUBLIC_KEY</title>
<polygon fill="none" stroke="black" points="1820.5,-180 1632.5,-180 1632.5,-144 1826.5,-144 1826.5,-174 1820.5,-180"/>
<polyline fill="none" stroke="black" points="1820.5,-180 1820.5,-174 "/>
<polyline fill="none" stroke="black" points="1826.5,-174 1820.5,-174 "/>
<text text-anchor="middle" x="1729.5" y="-158.3" font-family="Times New Roman,serif" font-size="14.00">var.PATH_TO_PUBLIC_KEY</text>
</g>
<!-- [root] aws_key_pair.mykeypair (expand)&#45;&gt;[root] var.PATH_TO_PUBLIC_KEY -->
<g id="edge9" class="edge">
<title>[root] aws_key_pair.mykeypair (expand)&#45;&gt;[root] var.PATH_TO_PUBLIC_KEY</title>
<path fill="none" stroke="black" d="M1809.57,-215.88C1795.84,-206.81 1778.79,-195.55 1763.96,-185.76"/>
<polygon fill="black" stroke="black" points="1765.8,-182.78 1755.53,-180.19 1761.95,-188.62 1765.8,-182.78"/>
</g>
<!-- [root] aws_nat_gateway.nat&#45;gw (expand) -->
<g id="node6" class="node">
<title>[root] aws_nat_gateway.nat&#45;gw (expand)</title>
<polygon fill="none" stroke="black" points="1365.5,-324 1209.5,-324 1209.5,-288 1365.5,-288 1365.5,-324"/>
<text text-anchor="middle" x="1287.5" y="-302.3" font-family="Times New Roman,serif" font-size="14.00">aws_nat_gateway.nat&#45;gw</text>
</g>
<!-- [root] aws_nat_gateway.nat&#45;gw (expand)&#45;&gt;[root] aws_eip.nat (expand) -->
<g id="edge10" class="edge">
<title>[root] aws_nat_gateway.nat&#45;gw (expand)&#45;&gt;[root] aws_eip.nat (expand)</title>
<path fill="none" stroke="black" d="M1327.19,-287.79C1344.23,-278.95 1363.42,-266.88 1377.5,-252 1394.42,-234.12 1406.7,-208.8 1414.29,-189.73"/>
<polygon fill="black" stroke="black" points="1417.65,-190.73 1417.93,-180.14 1411.11,-188.25 1417.65,-190.73"/>
</g>
<!-- [root] aws_nat_gateway.nat&#45;gw (expand)&#45;&gt;[root] aws_internet_gateway.main&#45;gw (expand) -->
<g id="edge11" class="edge">
<title>[root] aws_nat_gateway.nat&#45;gw (expand)&#45;&gt;[root] aws_internet_gateway.main&#45;gw (expand)</title>
<path fill="none" stroke="black" d="M1239.8,-287.88C1212.55,-278.09 1178.2,-265.77 1149.53,-255.47"/>
<polygon fill="black" stroke="black" points="1150.64,-252.15 1140.05,-252.07 1148.28,-258.74 1150.64,-252.15"/>
</g>
<!-- [root] aws_nat_gateway.nat&#45;gw (expand)&#45;&gt;[root] aws_subnet.main&#45;public&#45;1 (expand) -->
<g id="edge12" class="edge">
<title>[root] aws_nat_gateway.nat&#45;gw (expand)&#45;&gt;[root] aws_subnet.main&#45;public&#45;1 (expand)</title>
<path fill="none" stroke="black" d="M1287.5,-287.7C1287.5,-279.98 1287.5,-270.71 1287.5,-262.11"/>
<polygon fill="black" stroke="black" points="1291,-262.1 1287.5,-252.1 1284,-262.1 1291,-262.1"/>
</g>
<!-- [root] aws_route_table.main&#45;private (expand) -->
<g id="node7" class="node">
<title>[root] aws_route_table.main&#45;private (expand)</title>
<polygon fill="none" stroke="black" points="1377.5,-396 1197.5,-396 1197.5,-360 1377.5,-360 1377.5,-396"/>
<text text-anchor="middle" x="1287.5" y="-374.3" font-family="Times New Roman,serif" font-size="14.00">aws_route_table.main&#45;private</text>
</g>
<!-- [root] aws_route_table.main&#45;private (expand)&#45;&gt;[root] aws_nat_gateway.nat&#45;gw (expand) -->
<g id="edge13" class="edge">
<title>[root] aws_route_table.main&#45;private (expand)&#45;&gt;[root] aws_nat_gateway.nat&#45;gw (expand)</title>
<path fill="none" stroke="black" d="M1287.5,-359.7C1287.5,-351.98 1287.5,-342.71 1287.5,-334.11"/>
<polygon fill="black" stroke="black" points="1291,-334.1 1287.5,-324.1 1284,-334.1 1291,-334.1"/>
</g>
<!-- [root] aws_route_table.main&#45;public (expand) -->
<g id="node8" class="node">
<title>[root] aws_route_table.main&#45;public (expand)</title>
<polygon fill="none" stroke="black" points="748,-396 571,-396 571,-360 748,-360 748,-396"/>
<text text-anchor="middle" x="659.5" y="-374.3" font-family="Times New Roman,serif" font-size="14.00">aws_route_table.main&#45;public</text>
</g>
<!-- [root] aws_route_table.main&#45;public (expand)&#45;&gt;[root] aws_internet_gateway.main&#45;gw (expand) -->
<g id="edge14" class="edge">
<title>[root] aws_route_table.main&#45;public (expand)&#45;&gt;[root] aws_internet_gateway.main&#45;gw (expand)</title>
<path fill="none" stroke="black" d="M748.22,-364.52C788.3,-356.56 835.33,-343.87 874.5,-324 896.73,-312.73 895.57,-299.85 917.5,-288 943.73,-273.82 974.27,-262.91 1002.43,-254.78"/>
<polygon fill="black" stroke="black" points="1003.59,-258.09 1012.28,-252.02 1001.7,-251.35 1003.59,-258.09"/>
</g>
<!-- [root] aws_route_table_association.main&#45;private&#45;1&#45;a (expand) -->
<g id="node9" class="node">
<title>[root] aws_route_table_association.main&#45;private&#45;1&#45;a (expand)</title>
<polygon fill="none" stroke="black" points="1133.5,-468 861.5,-468 861.5,-432 1133.5,-432 1133.5,-468"/>
<text text-anchor="middle" x="997.5" y="-446.3" font-family="Times New Roman,serif" font-size="14.00">aws_route_table_association.main&#45;private&#45;1&#45;a</text>
</g>
<!-- [root] aws_route_table_association.main&#45;private&#45;1&#45;a (expand)&#45;&gt;[root] aws_route_table.main&#45;private (expand) -->
<g id="edge15" class="edge">
<title>[root] aws_route_table_association.main&#45;private&#45;1&#45;a (expand)&#45;&gt;[root] aws_route_table.main&#45;private (expand)</title>
<path fill="none" stroke="black" d="M1068.07,-431.97C1109.99,-421.85 1163.29,-408.98 1206.87,-398.46"/>
<polygon fill="black" stroke="black" points="1207.96,-401.8 1216.86,-396.05 1206.32,-394.99 1207.96,-401.8"/>
</g>
<!-- [root] aws_subnet.main&#45;private&#45;1 (expand) -->
<g id="node16" class="node">
<title>[root] aws_subnet.main&#45;private&#45;1 (expand)</title>
<polygon fill="none" stroke="black" points="865.5,-324 699.5,-324 699.5,-288 865.5,-288 865.5,-324"/>
<text text-anchor="middle" x="782.5" y="-302.3" font-family="Times New Roman,serif" font-size="14.00">aws_subnet.main&#45;private&#45;1</text>
</g>
<!-- [root] aws_route_table_association.main&#45;private&#45;1&#45;a (expand)&#45;&gt;[root] aws_subnet.main&#45;private&#45;1 (expand) -->
<g id="edge16" class="edge">
<title>[root] aws_route_table_association.main&#45;private&#45;1&#45;a (expand)&#45;&gt;[root] aws_subnet.main&#45;private&#45;1 (expand)</title>
<path fill="none" stroke="black" d="M971.57,-431.87C932.91,-406.34 860.1,-358.25 816.99,-329.78"/>
<polygon fill="black" stroke="black" points="818.8,-326.78 808.53,-324.19 814.94,-332.62 818.8,-326.78"/>
</g>
<!-- [root] aws_route_table_association.main&#45;private&#45;2&#45;a (expand) -->
<g id="node10" class="node">
<title>[root] aws_route_table_association.main&#45;private&#45;2&#45;a (expand)</title>
<polygon fill="none" stroke="black" points="1713.5,-468 1441.5,-468 1441.5,-432 1713.5,-432 1713.5,-468"/>
<text text-anchor="middle" x="1577.5" y="-446.3" font-family="Times New Roman,serif" font-size="14.00">aws_route_table_association.main&#45;private&#45;2&#45;a</text>
</g>
<!-- [root] aws_route_table_association.main&#45;private&#45;2&#45;a (expand)&#45;&gt;[root] aws_route_table.main&#45;private (expand) -->
<g id="edge17" class="edge">
<title>[root] aws_route_table_association.main&#45;private&#45;2&#45;a (expand)&#45;&gt;[root] aws_route_table.main&#45;private (expand)</title>
<path fill="none" stroke="black" d="M1506.93,-431.97C1465.01,-421.85 1411.71,-408.98 1368.13,-398.46"/>
<polygon fill="black" stroke="black" points="1368.68,-394.99 1358.14,-396.05 1367.04,-401.8 1368.68,-394.99"/>
</g>
<!-- [root] aws_subnet.main&#45;private&#45;2 (expand) -->
<g id="node17" class="node">
<title>[root] aws_subnet.main&#45;private&#45;2 (expand)</title>
<polygon fill="none" stroke="black" points="1618.5,-324 1452.5,-324 1452.5,-288 1618.5,-288 1618.5,-324"/>
<text text-anchor="middle" x="1535.5" y="-302.3" font-family="Times New Roman,serif" font-size="14.00">aws_subnet.main&#45;private&#45;2</text>
</g>
<!-- [root] aws_route_table_association.main&#45;private&#45;2&#45;a (expand)&#45;&gt;[root] aws_subnet.main&#45;private&#45;2 (expand) -->
<g id="edge18" class="edge">
<title>[root] aws_route_table_association.main&#45;private&#45;2&#45;a (expand)&#45;&gt;[root] aws_subnet.main&#45;private&#45;2 (expand)</title>
<path fill="none" stroke="black" d="M1572.43,-431.87C1565.24,-407.56 1552.01,-362.82 1543.49,-334.01"/>
<polygon fill="black" stroke="black" points="1546.78,-332.79 1540.58,-324.19 1540.06,-334.77 1546.78,-332.79"/>
</g>
<!-- [root] aws_route_table_association.main&#45;private&#45;3&#45;a (expand) -->
<g id="node11" class="node">
<title>[root] aws_route_table_association.main&#45;private&#45;3&#45;a (expand)</title>
<polygon fill="none" stroke="black" points="1423.5,-468 1151.5,-468 1151.5,-432 1423.5,-432 1423.5,-468"/>
<text text-anchor="middle" x="1287.5" y="-446.3" font-family="Times New Roman,serif" font-size="14.00">aws_route_table_association.main&#45;private&#45;3&#45;a</text>
</g>
<!-- [root] aws_route_table_association.main&#45;private&#45;3&#45;a (expand)&#45;&gt;[root] aws_route_table.main&#45;private (expand) -->
<g id="edge19" class="edge">
<title>[root] aws_route_table_association.main&#45;private&#45;3&#45;a (expand)&#45;&gt;[root] aws_route_table.main&#45;private (expand)</title>
<path fill="none" stroke="black" d="M1287.5,-431.7C1287.5,-423.98 1287.5,-414.71 1287.5,-406.11"/>
<polygon fill="black" stroke="black" points="1291,-406.1 1287.5,-396.1 1284,-406.1 1291,-406.1"/>
</g>
<!-- [root] aws_subnet.main&#45;private&#45;3 (expand) -->
<g id="node18" class="node">
<title>[root] aws_subnet.main&#45;private&#45;3 (expand)</title>
<polygon fill="none" stroke="black" points="1152.5,-396 986.5,-396 986.5,-360 1152.5,-360 1152.5,-396"/>
<text text-anchor="middle" x="1069.5" y="-374.3" font-family="Times New Roman,serif" font-size="14.00">aws_subnet.main&#45;private&#45;3</text>
</g>
<!-- [root] aws_route_table_association.main&#45;private&#45;3&#45;a (expand)&#45;&gt;[root] aws_subnet.main&#45;private&#45;3 (expand) -->
<g id="edge20" class="edge">
<title>[root] aws_route_table_association.main&#45;private&#45;3&#45;a (expand)&#45;&gt;[root] aws_subnet.main&#45;private&#45;3 (expand)</title>
<path fill="none" stroke="black" d="M1234.45,-431.97C1203.73,-422.1 1164.86,-409.62 1132.58,-399.25"/>
<polygon fill="black" stroke="black" points="1133.38,-395.84 1122.79,-396.11 1131.24,-402.5 1133.38,-395.84"/>
</g>
<!-- [root] aws_route_table_association.main&#45;public&#45;1&#45;a (expand) -->
<g id="node12" class="node">
<title>[root] aws_route_table_association.main&#45;public&#45;1&#45;a (expand)</title>
<polygon fill="none" stroke="black" points="843,-468 574,-468 574,-432 843,-432 843,-468"/>
<text text-anchor="middle" x="708.5" y="-446.3" font-family="Times New Roman,serif" font-size="14.00">aws_route_table_association.main&#45;public&#45;1&#45;a</text>
</g>
<!-- [root] aws_route_table_association.main&#45;public&#45;1&#45;a (expand)&#45;&gt;[root] aws_route_table.main&#45;public (expand) -->
<g id="edge21" class="edge">
<title>[root] aws_route_table_association.main&#45;public&#45;1&#45;a (expand)&#45;&gt;[root] aws_route_table.main&#45;public (expand)</title>
<path fill="none" stroke="black" d="M696.39,-431.7C690.63,-423.47 683.64,-413.48 677.29,-404.42"/>
<polygon fill="black" stroke="black" points="680.08,-402.29 671.47,-396.1 674.34,-406.3 680.08,-402.29"/>
</g>
<!-- [root] aws_route_table_association.main&#45;public&#45;1&#45;a (expand)&#45;&gt;[root] aws_subnet.main&#45;public&#45;1 (expand) -->
<g id="edge22" class="edge">
<title>[root] aws_route_table_association.main&#45;public&#45;1&#45;a (expand)&#45;&gt;[root] aws_subnet.main&#45;public&#45;1 (expand)</title>
<path fill="none" stroke="black" d="M754.9,-431.85C860.38,-392.87 1117.78,-297.73 1231.69,-255.63"/>
<polygon fill="black" stroke="black" points="1233.11,-258.83 1241.28,-252.08 1230.69,-252.27 1233.11,-258.83"/>
</g>
<!-- [root] aws_route_table_association.main&#45;public&#45;2&#45;a (expand) -->
<g id="node13" class="node">
<title>[root] aws_route_table_association.main&#45;public&#45;2&#45;a (expand)</title>
<polygon fill="none" stroke="black" points="556,-468 287,-468 287,-432 556,-432 556,-468"/>
<text text-anchor="middle" x="421.5" y="-446.3" font-family="Times New Roman,serif" font-size="14.00">aws_route_table_association.main&#45;public&#45;2&#45;a</text>
</g>
<!-- [root] aws_route_table_association.main&#45;public&#45;2&#45;a (expand)&#45;&gt;[root] aws_route_table.main&#45;public (expand) -->
<g id="edge23" class="edge">
<title>[root] aws_route_table_association.main&#45;public&#45;2&#45;a (expand)&#45;&gt;[root] aws_route_table.main&#45;public (expand)</title>
<path fill="none" stroke="black" d="M479.42,-431.97C513.25,-422.01 556.12,-409.41 591.54,-398.99"/>
<polygon fill="black" stroke="black" points="592.72,-402.29 601.32,-396.11 590.74,-395.57 592.72,-402.29"/>
</g>
<!-- [root] aws_subnet.main&#45;public&#45;2 (expand) -->
<g id="node20" class="node">
<title>[root] aws_subnet.main&#45;public&#45;2 (expand)</title>
<polygon fill="none" stroke="black" points="528,-396 365,-396 365,-360 528,-360 528,-396"/>
<text text-anchor="middle" x="446.5" y="-374.3" font-family="Times New Roman,serif" font-size="14.00">aws_subnet.main&#45;public&#45;2</text>
</g>
<!-- [root] aws_route_table_association.main&#45;public&#45;2&#45;a (expand)&#45;&gt;[root] aws_subnet.main&#45;public&#45;2 (expand) -->
<g id="edge24" class="edge">
<title>[root] aws_route_table_association.main&#45;public&#45;2&#45;a (expand)&#45;&gt;[root] aws_subnet.main&#45;public&#45;2 (expand)</title>
<path fill="none" stroke="black" d="M427.68,-431.7C430.5,-423.81 433.89,-414.3 437.02,-405.55"/>
<polygon fill="black" stroke="black" points="440.32,-406.7 440.39,-396.1 433.73,-404.34 440.32,-406.7"/>
</g>
<!-- [root] aws_route_table_association.main&#45;public&#45;3&#45;a (expand) -->
<g id="node14" class="node">
<title>[root] aws_route_table_association.main&#45;public&#45;3&#45;a (expand)</title>
<polygon fill="none" stroke="black" points="269,-468 0,-468 0,-432 269,-432 269,-468"/>
<text text-anchor="middle" x="134.5" y="-446.3" font-family="Times New Roman,serif" font-size="14.00">aws_route_table_association.main&#45;public&#45;3&#45;a</text>
</g>
<!-- [root] aws_route_table_association.main&#45;public&#45;3&#45;a (expand)&#45;&gt;[root] aws_route_table.main&#45;public (expand) -->
<g id="edge25" class="edge">
<title>[root] aws_route_table_association.main&#45;public&#45;3&#45;a (expand)&#45;&gt;[root] aws_route_table.main&#45;public (expand)</title>
<path fill="none" stroke="black" d="M265.33,-431.96C343.95,-421.67 445.98,-408.22 536.5,-396 544.4,-394.93 552.58,-393.82 560.8,-392.7"/>
<polygon fill="black" stroke="black" points="561.39,-396.15 570.83,-391.32 560.44,-389.21 561.39,-396.15"/>
</g>
<!-- [root] aws_subnet.main&#45;public&#45;3 (expand) -->
<g id="node21" class="node">
<title>[root] aws_subnet.main&#45;public&#45;3 (expand)</title>
<polygon fill="none" stroke="black" points="390,-324 227,-324 227,-288 390,-288 390,-324"/>
<text text-anchor="middle" x="308.5" y="-302.3" font-family="Times New Roman,serif" font-size="14.00">aws_subnet.main&#45;public&#45;3</text>
</g>
<!-- [root] aws_route_table_association.main&#45;public&#45;3&#45;a (expand)&#45;&gt;[root] aws_subnet.main&#45;public&#45;3 (expand) -->
<g id="edge26" class="edge">
<title>[root] aws_route_table_association.main&#45;public&#45;3&#45;a (expand)&#45;&gt;[root] aws_subnet.main&#45;public&#45;3 (expand)</title>
<path fill="none" stroke="black" d="M155.49,-431.87C186.45,-406.6 244.47,-359.25 279.49,-330.68"/>
<polygon fill="black" stroke="black" points="281.9,-333.22 287.44,-324.19 277.48,-327.8 281.9,-333.22"/>
</g>
<!-- [root] aws_security_group.allow&#45;ssh (expand)&#45;&gt;[root] aws_vpc.main (expand) -->
<g id="edge27" class="edge">
<title>[root] aws_security_group.allow&#45;ssh (expand)&#45;&gt;[root] aws_vpc.main (expand)</title>
<path fill="none" stroke="black" d="M1463.43,-218.15C1458.72,-217.42 1454.05,-216.7 1449.5,-216 1344.43,-199.85 1221.83,-181.83 1151.08,-171.51"/>
<polygon fill="black" stroke="black" points="1151.43,-168.02 1141.03,-170.04 1150.42,-174.95 1151.43,-168.02"/>
</g>
<!-- [root] aws_subnet.main&#45;private&#45;1 (expand)&#45;&gt;[root] aws_vpc.main (expand) -->
<g id="edge28" class="edge">
<title>[root] aws_subnet.main&#45;private&#45;1 (expand)&#45;&gt;[root] aws_vpc.main (expand)</title>
<path fill="none" stroke="black" d="M813.27,-287.91C847.49,-269.21 904.66,-238.83 955.5,-216 981.27,-204.42 1010.4,-192.94 1035.15,-183.64"/>
<polygon fill="black" stroke="black" points="1036.61,-186.83 1044.75,-180.05 1034.16,-180.27 1036.61,-186.83"/>
</g>
<!-- [root] aws_subnet.main&#45;private&#45;2 (expand)&#45;&gt;[root] aws_vpc.main (expand) -->
<g id="edge29" class="edge">
<title>[root] aws_subnet.main&#45;private&#45;2 (expand)&#45;&gt;[root] aws_vpc.main (expand)</title>
<path fill="none" stroke="black" d="M1511.28,-287.98C1481.29,-267.72 1427.95,-234.33 1377.5,-216 1302.09,-188.61 1210.07,-174.78 1151.38,-168.24"/>
<polygon fill="black" stroke="black" points="1151.49,-164.73 1141.18,-167.14 1150.74,-171.69 1151.49,-164.73"/>
</g>
<!-- [root] aws_subnet.main&#45;private&#45;3 (expand)&#45;&gt;[root] aws_vpc.main (expand) -->
<g id="edge30" class="edge">
<title>[root] aws_subnet.main&#45;private&#45;3 (expand)&#45;&gt;[root] aws_vpc.main (expand)</title>
<path fill="none" stroke="black" d="M1049.15,-359.81C1016.17,-329.81 957.68,-266.29 988.5,-216 998.91,-199.01 1016.68,-187.25 1034.61,-179.21"/>
<polygon fill="black" stroke="black" points="1036.06,-182.39 1043.96,-175.34 1033.38,-175.93 1036.06,-182.39"/>
</g>
<!-- [root] aws_subnet.main&#45;public&#45;1 (expand)&#45;&gt;[root] aws_vpc.main (expand) -->
<g id="edge31" class="edge">
<title>[root] aws_subnet.main&#45;public&#45;1 (expand)&#45;&gt;[root] aws_vpc.main (expand)</title>
<path fill="none" stroke="black" d="M1239.8,-215.88C1212.55,-206.09 1178.2,-193.77 1149.53,-183.47"/>
<polygon fill="black" stroke="black" points="1150.64,-180.15 1140.05,-180.07 1148.28,-186.74 1150.64,-180.15"/>
</g>
<!-- [root] aws_subnet.main&#45;public&#45;2 (expand)&#45;&gt;[root] aws_vpc.main (expand) -->
<g id="edge32" class="edge">
<title>[root] aws_subnet.main&#45;public&#45;2 (expand)&#45;&gt;[root] aws_vpc.main (expand)</title>
<path fill="none" stroke="black" d="M487.76,-359.89C564.15,-328.6 733.15,-261.26 879.5,-216 931.07,-200.05 990.78,-185.53 1033.83,-175.73"/>
<polygon fill="black" stroke="black" points="1034.87,-179.09 1043.85,-173.47 1033.33,-172.26 1034.87,-179.09"/>
</g>
<!-- [root] aws_subnet.main&#45;public&#45;3 (expand)&#45;&gt;[root] aws_vpc.main (expand) -->
<g id="edge33" class="edge">
<title>[root] aws_subnet.main&#45;public&#45;3 (expand)&#45;&gt;[root] aws_vpc.main (expand)</title>
<path fill="none" stroke="black" d="M349.92,-287.88C401.4,-267.35 492.38,-233.53 573.5,-216 737.93,-180.46 936.95,-168.59 1033.82,-164.75"/>
<polygon fill="black" stroke="black" points="1034.14,-168.24 1044,-164.37 1033.87,-161.25 1034.14,-168.24"/>
</g>
<!-- [root] aws_volume_attachment.ebs&#45;volume&#45;1&#45;attachment (expand) -->
<g id="node22" class="node">
<title>[root] aws_volume_attachment.ebs&#45;volume&#45;1&#45;attachment (expand)</title>
<polygon fill="none" stroke="black" points="2029.5,-468 1731.5,-468 1731.5,-432 2029.5,-432 2029.5,-468"/>
<text text-anchor="middle" x="1880.5" y="-446.3" font-family="Times New Roman,serif" font-size="14.00">aws_volume_attachment.ebs&#45;volume&#45;1&#45;attachment</text>
</g>
<!-- [root] aws_volume_attachment.ebs&#45;volume&#45;1&#45;attachment (expand)&#45;&gt;[root] aws_ebs_volume.ebs&#45;volume&#45;1 (expand) -->
<g id="edge34" class="edge">
<title>[root] aws_volume_attachment.ebs&#45;volume&#45;1&#45;attachment (expand)&#45;&gt;[root] aws_ebs_volume.ebs&#45;volume&#45;1 (expand)</title>
<path fill="none" stroke="black" d="M1884.13,-431.97C1894.32,-384.19 1923.24,-248.62 1935.68,-190.27"/>
<polygon fill="black" stroke="black" points="1939.15,-190.82 1937.81,-180.31 1932.3,-189.36 1939.15,-190.82"/>
</g>
<!-- [root] aws_volume_attachment.ebs&#45;volume&#45;1&#45;attachment (expand)&#45;&gt;[root] aws_instance.example (expand) -->
<g id="edge35" class="edge">
<title>[root] aws_volume_attachment.ebs&#45;volume&#45;1&#45;attachment (expand)&#45;&gt;[root] aws_instance.example (expand)</title>
<path fill="none" stroke="black" d="M1861.56,-431.87C1833.74,-406.71 1781.72,-359.65 1750.08,-331.04"/>
<polygon fill="black" stroke="black" points="1752.27,-328.3 1742.51,-324.19 1747.57,-333.49 1752.27,-328.3"/>
</g>
<!-- [root] aws_vpc.main (expand)&#45;&gt;[root] provider[&quot;registry.terraform.io/hashicorp/aws&quot;] -->
<g id="edge36" class="edge">
<title>[root] aws_vpc.main (expand)&#45;&gt;[root] provider[&quot;registry.terraform.io/hashicorp/aws&quot;]</title>
<path fill="none" stroke="black" d="M1141.02,-153.17C1213.97,-141.41 1352.87,-119 1442.5,-104.55"/>
<polygon fill="black" stroke="black" points="1443.32,-107.96 1452.64,-102.91 1442.21,-101.05 1443.32,-107.96"/>
</g>
<!-- [root] output.ip -->
<g id="node24" class="node">
<title>[root] output.ip</title>
<polygon fill="none" stroke="black" points="2109,-468 2048,-468 2048,-432 2115,-432 2115,-462 2109,-468"/>
<polyline fill="none" stroke="black" points="2109,-468 2109,-462 "/>
<polyline fill="none" stroke="black" points="2115,-462 2109,-462 "/>
<text text-anchor="middle" x="2081.5" y="-446.3" font-family="Times New Roman,serif" font-size="14.00">output.ip</text>
</g>
<!-- [root] output.ip&#45;&gt;[root] aws_instance.example (expand) -->
<g id="edge46" class="edge">
<title>[root] output.ip&#45;&gt;[root] aws_instance.example (expand)</title>
<path fill="none" stroke="black" d="M2047.82,-435.64C1985.27,-410.83 1850.75,-357.47 1776.11,-327.87"/>
<polygon fill="black" stroke="black" points="1777.01,-324.46 1766.43,-324.03 1774.43,-330.97 1777.01,-324.46"/>
</g>
<!-- [root] var.AWS_REGION -->
<g id="node27" class="node">
<title>[root] var.AWS_REGION</title>
<polygon fill="none" stroke="black" points="1585.5,-36 1461.5,-36 1461.5,0 1591.5,0 1591.5,-30 1585.5,-36"/>
<polyline fill="none" stroke="black" points="1585.5,-36 1585.5,-30 "/>
<polyline fill="none" stroke="black" points="1591.5,-30 1585.5,-30 "/>
<text text-anchor="middle" x="1526.5" y="-14.3" font-family="Times New Roman,serif" font-size="14.00">var.AWS_REGION</text>
</g>
<!-- [root] provider[&quot;registry.terraform.io/hashicorp/aws&quot;]&#45;&gt;[root] var.AWS_REGION -->
<g id="edge54" class="edge">
<title>[root] provider[&quot;registry.terraform.io/hashicorp/aws&quot;]&#45;&gt;[root] var.AWS_REGION</title>
<path fill="none" stroke="black" d="M1526.5,-71.7C1526.5,-63.98 1526.5,-54.71 1526.5,-46.11"/>
<polygon fill="black" stroke="black" points="1530,-46.1 1526.5,-36.1 1523,-46.1 1530,-46.1"/>
</g>
<!-- [root] var.PATH_TO_PRIVATE_KEY -->
<g id="node28" class="node">
<title>[root] var.PATH_TO_PRIVATE_KEY</title>
<polygon fill="none" stroke="black" points="2330,-468 2133,-468 2133,-432 2336,-432 2336,-462 2330,-468"/>
<polyline fill="none" stroke="black" points="2330,-468 2330,-462 "/>
<polyline fill="none" stroke="black" points="2336,-462 2330,-462 "/>
<text text-anchor="middle" x="2234.5" y="-446.3" font-family="Times New Roman,serif" font-size="14.00">var.PATH_TO_PRIVATE_KEY</text>
</g>
<!-- [root] meta.count&#45;boundary (EachMode fixup) -->
<g id="node30" class="node">
<title>[root] meta.count&#45;boundary (EachMode fixup)</title>
<ellipse fill="none" stroke="black" cx="1357.5" cy="-522" rx="180.87" ry="18"/>
<text text-anchor="middle" x="1357.5" y="-518.3" font-family="Times New Roman,serif" font-size="14.00">[root] meta.count&#45;boundary (EachMode fixup)</text>
</g>
<!-- [root] meta.count&#45;boundary (EachMode fixup)&#45;&gt;[root] aws_route_table_association.main&#45;private&#45;1&#45;a (expand) -->
<g id="edge37" class="edge">
<title>[root] meta.count&#45;boundary (EachMode fixup)&#45;&gt;[root] aws_route_table_association.main&#45;private&#45;1&#45;a (expand)</title>
<path fill="none" stroke="black" d="M1278.94,-505.72C1224.87,-495.21 1152.65,-481.17 1094.92,-469.94"/>
<polygon fill="black" stroke="black" points="1095.53,-466.5 1085.05,-468.02 1094.19,-473.37 1095.53,-466.5"/>
</g>
<!-- [root] meta.count&#45;boundary (EachMode fixup)&#45;&gt;[root] aws_route_table_association.main&#45;private&#45;2&#45;a (expand) -->
<g id="edge38" class="edge">
<title>[root] meta.count&#45;boundary (EachMode fixup)&#45;&gt;[root] aws_route_table_association.main&#45;private&#45;2&#45;a (expand)</title>
<path fill="none" stroke="black" d="M1408.8,-504.68C1440.24,-494.68 1480.71,-481.8 1514.14,-471.16"/>
<polygon fill="black" stroke="black" points="1515.35,-474.45 1523.81,-468.08 1513.22,-467.78 1515.35,-474.45"/>
</g>
<!-- [root] meta.count&#45;boundary (EachMode fixup)&#45;&gt;[root] aws_route_table_association.main&#45;private&#45;3&#45;a (expand) -->
<g id="edge39" class="edge">
<title>[root] meta.count&#45;boundary (EachMode fixup)&#45;&gt;[root] aws_route_table_association.main&#45;private&#45;3&#45;a (expand)</title>
<path fill="none" stroke="black" d="M1340.55,-504.05C1332,-495.5 1321.46,-484.96 1312.04,-475.54"/>
<polygon fill="black" stroke="black" points="1314.32,-472.87 1304.78,-468.28 1309.37,-477.82 1314.32,-472.87"/>
</g>
<!-- [root] meta.count&#45;boundary (EachMode fixup)&#45;&gt;[root] aws_route_table_association.main&#45;public&#45;1&#45;a (expand) -->
<g id="edge40" class="edge">
<title>[root] meta.count&#45;boundary (EachMode fixup)&#45;&gt;[root] aws_route_table_association.main&#45;public&#45;1&#45;a (expand)</title>
<path fill="none" stroke="black" d="M1235.77,-508.67C1135.95,-498.46 990.67,-483.35 853.31,-468.08"/>
<polygon fill="black" stroke="black" points="853.34,-464.56 843.02,-466.94 852.57,-471.52 853.34,-464.56"/>
</g>
<!-- [root] meta.count&#45;boundary (EachMode fixup)&#45;&gt;[root] aws_route_table_association.main&#45;public&#45;2&#45;a (expand) -->
<g id="edge41" class="edge">
<title>[root] meta.count&#45;boundary (EachMode fixup)&#45;&gt;[root] aws_route_table_association.main&#45;public&#45;2&#45;a (expand)</title>
<path fill="none" stroke="black" d="M1231.23,-509.11C1210.28,-507.29 1188.79,-505.52 1168.5,-504 903.6,-484.2 834.05,-491.69 566.22,-468.13"/>
<polygon fill="black" stroke="black" points="566.47,-464.63 556.2,-467.24 565.86,-471.61 566.47,-464.63"/>
</g>
<!-- [root] meta.count&#45;boundary (EachMode fixup)&#45;&gt;[root] aws_route_table_association.main&#45;public&#45;3&#45;a (expand) -->
<g id="edge42" class="edge">
<title>[root] meta.count&#45;boundary (EachMode fixup)&#45;&gt;[root] aws_route_table_association.main&#45;public&#45;3&#45;a (expand)</title>
<path fill="none" stroke="black" d="M1233.03,-508.93C1211.52,-507.09 1189.38,-505.36 1168.5,-504 776.3,-478.45 674.26,-499.07 279.18,-468.1"/>
<polygon fill="black" stroke="black" points="279.44,-464.61 269.2,-467.31 278.89,-471.59 279.44,-464.61"/>
</g>
<!-- [root] meta.count&#45;boundary (EachMode fixup)&#45;&gt;[root] aws_volume_attachment.ebs&#45;volume&#45;1&#45;attachment (expand) -->
<g id="edge43" class="edge">
<title>[root] meta.count&#45;boundary (EachMode fixup)&#45;&gt;[root] aws_volume_attachment.ebs&#45;volume&#45;1&#45;attachment (expand)</title>
<path fill="none" stroke="black" d="M1460.52,-507.21C1541.32,-496.4 1654.54,-481.24 1743.07,-469.39"/>
<polygon fill="black" stroke="black" points="1743.75,-472.83 1753.19,-468.04 1742.82,-465.9 1743.75,-472.83"/>
</g>
<!-- [root] meta.count&#45;boundary (EachMode fixup)&#45;&gt;[root] output.ip -->
<g id="edge44" class="edge">
<title>[root] meta.count&#45;boundary (EachMode fixup)&#45;&gt;[root] output.ip</title>
<path fill="none" stroke="black" d="M1519.5,-513.96C1683.86,-505.86 1928.07,-490.92 2037.66,-467.69"/>
<polygon fill="black" stroke="black" points="2038.53,-471.09 2047.53,-465.49 2037,-464.25 2038.53,-471.09"/>
</g>
<!-- [root] meta.count&#45;boundary (EachMode fixup)&#45;&gt;[root] var.PATH_TO_PRIVATE_KEY -->
<g id="edge45" class="edge">
<title>[root] meta.count&#45;boundary (EachMode fixup)&#45;&gt;[root] var.PATH_TO_PRIVATE_KEY</title>
<path fill="none" stroke="black" d="M1518.72,-513.82C1671.74,-506.08 1908.37,-491.74 2122.76,-468.14"/>
<polygon fill="black" stroke="black" points="2123.4,-471.59 2132.95,-467.01 2122.63,-464.64 2123.4,-471.59"/>
</g>
<!-- [root] provider[&quot;registry.terraform.io/hashicorp/aws&quot;] (close) -->
<g id="node31" class="node">
<title>[root] provider[&quot;registry.terraform.io/hashicorp/aws&quot;] (close)</title>
<ellipse fill="none" stroke="black" cx="926.5" cy="-522" rx="232.86" ry="18"/>
<text text-anchor="middle" x="926.5" y="-518.3" font-family="Times New Roman,serif" font-size="14.00">[root] provider[&quot;registry.terraform.io/hashicorp/aws&quot;] (close)</text>
</g>
<!-- [root] provider[&quot;registry.terraform.io/hashicorp/aws&quot;] (close)&#45;&gt;[root] aws_route_table_association.main&#45;private&#45;1&#45;a (expand) -->
<g id="edge47" class="edge">
<title>[root] provider[&quot;registry.terraform.io/hashicorp/aws&quot;] (close)&#45;&gt;[root] aws_route_table_association.main&#45;private&#45;1&#45;a (expand)</title>
<path fill="none" stroke="black" d="M944.05,-503.7C952.73,-495.14 963.36,-484.66 972.85,-475.3"/>
<polygon fill="black" stroke="black" points="975.49,-477.62 980.15,-468.1 970.57,-472.63 975.49,-477.62"/>
</g>
<!-- [root] provider[&quot;registry.terraform.io/hashicorp/aws&quot;] (close)&#45;&gt;[root] aws_route_table_association.main&#45;private&#45;2&#45;a (expand) -->
<g id="edge48" class="edge">
<title>[root] provider[&quot;registry.terraform.io/hashicorp/aws&quot;] (close)&#45;&gt;[root] aws_route_table_association.main&#45;private&#45;2&#45;a (expand)</title>
<path fill="none" stroke="black" d="M1061.58,-507.31C1160.95,-497.13 1299.6,-482.7 1431.02,-468.16"/>
<polygon fill="black" stroke="black" points="1431.73,-471.6 1441.28,-467.02 1430.95,-464.64 1431.73,-471.6"/>
</g>
<!-- [root] provider[&quot;registry.terraform.io/hashicorp/aws&quot;] (close)&#45;&gt;[root] aws_route_table_association.main&#45;private&#45;3&#45;a (expand) -->
<g id="edge49" class="edge">
<title>[root] provider[&quot;registry.terraform.io/hashicorp/aws&quot;] (close)&#45;&gt;[root] aws_route_table_association.main&#45;private&#45;3&#45;a (expand)</title>
<path fill="none" stroke="black" d="M1008.42,-505.12C1062.19,-494.69 1132.8,-481 1189.54,-470"/>
<polygon fill="black" stroke="black" points="1190.45,-473.38 1199.6,-468.04 1189.12,-466.51 1190.45,-473.38"/>
</g>
<!-- [root] provider[&quot;registry.terraform.io/hashicorp/aws&quot;] (close)&#45;&gt;[root] aws_route_table_association.main&#45;public&#45;1&#45;a (expand) -->
<g id="edge50" class="edge">
<title>[root] provider[&quot;registry.terraform.io/hashicorp/aws&quot;] (close)&#45;&gt;[root] aws_route_table_association.main&#45;public&#45;1&#45;a (expand)</title>
<path fill="none" stroke="black" d="M874.84,-504.41C843.91,-494.48 804.39,-481.79 771.62,-471.27"/>
<polygon fill="black" stroke="black" points="772.28,-467.8 761.69,-468.08 770.14,-474.47 772.28,-467.8"/>
</g>
<!-- [root] provider[&quot;registry.terraform.io/hashicorp/aws&quot;] (close)&#45;&gt;[root] aws_route_table_association.main&#45;public&#45;2&#45;a (expand) -->
<g id="edge51" class="edge">
<title>[root] provider[&quot;registry.terraform.io/hashicorp/aws&quot;] (close)&#45;&gt;[root] aws_route_table_association.main&#45;public&#45;2&#45;a (expand)</title>
<path fill="none" stroke="black" d="M818.47,-506.03C741.21,-495.32 636.75,-480.84 554.37,-469.42"/>
<polygon fill="black" stroke="black" points="554.83,-465.95 544.44,-468.04 553.87,-472.88 554.83,-465.95"/>
</g>
<!-- [root] provider[&quot;registry.terraform.io/hashicorp/aws&quot;] (close)&#45;&gt;[root] aws_route_table_association.main&#45;public&#45;3&#45;a (expand) -->
<g id="edge52" class="edge">
<title>[root] provider[&quot;registry.terraform.io/hashicorp/aws&quot;] (close)&#45;&gt;[root] aws_route_table_association.main&#45;public&#45;3&#45;a (expand)</title>
<path fill="none" stroke="black" d="M761.97,-509.25C633.25,-499.65 449.49,-485.09 279.36,-468.17"/>
<polygon fill="black" stroke="black" points="279.51,-464.67 269.21,-467.15 278.81,-471.63 279.51,-464.67"/>
</g>
<!-- [root] provider[&quot;registry.terraform.io/hashicorp/aws&quot;] (close)&#45;&gt;[root] aws_volume_attachment.ebs&#45;volume&#45;1&#45;attachment (expand) -->
<g id="edge53" class="edge">
<title>[root] provider[&quot;registry.terraform.io/hashicorp/aws&quot;] (close)&#45;&gt;[root] aws_volume_attachment.ebs&#45;volume&#45;1&#45;attachment (expand)</title>
<path fill="none" stroke="black" d="M1091.13,-509.26C1116.7,-507.48 1142.81,-505.67 1167.5,-504 1410.87,-487.52 1474.56,-489.18 1721.25,-468.09"/>
<polygon fill="black" stroke="black" points="1721.57,-471.57 1731.24,-467.23 1720.98,-464.6 1721.57,-471.57"/>
</g>
<!-- [root] root -->
<g id="node32" class="node">
<title>[root] root</title>
<ellipse fill="none" stroke="black" cx="1141.5" cy="-594" rx="49.29" ry="18"/>
<text text-anchor="middle" x="1141.5" y="-590.3" font-family="Times New Roman,serif" font-size="14.00">[root] root</text>
</g>
<!-- [root] root&#45;&gt;[root] meta.count&#45;boundary (EachMode fixup) -->
<g id="edge55" class="edge">
<title>[root] root&#45;&gt;[root] meta.count&#45;boundary (EachMode fixup)</title>
<path fill="none" stroke="black" d="M1177.17,-581.44C1209.87,-570.84 1258.93,-554.94 1297.63,-542.4"/>
<polygon fill="black" stroke="black" points="1298.8,-545.7 1307.23,-539.29 1296.64,-539.04 1298.8,-545.7"/>
</g>
<!-- [root] root&#45;&gt;[root] provider[&quot;registry.terraform.io/hashicorp/aws&quot;] (close) -->
<g id="edge56" class="edge">
<title>[root] root&#45;&gt;[root] provider[&quot;registry.terraform.io/hashicorp/aws&quot;] (close)</title>
<path fill="none" stroke="black" d="M1106,-581.44C1073.78,-570.95 1025.6,-555.27 987.26,-542.78"/>
<polygon fill="black" stroke="black" points="988.34,-539.45 977.75,-539.68 986.17,-546.11 988.34,-539.45"/>
</g>
</g>
</svg>
